fontBuilder.ufo
<glyph name="A" format="1">
  <advance width="331.0"/>
  <unicode hex="0041"/>
  <outline>
    <contour>
      <point x="0" y="0" type="curve"/>
      <point x="138" y="0"/>
      <point x="251" y="112"/>
      <point x="251" y="250" type="curve" smooth="yes"/>
      <point x="251" y="388"/>
      <point x="138" y="500"/>
      <point x="0" y="500" type="curve"/>
      <point x="-58" y="500"/>
      <point x="-114" y="465"/>
      <point x="-134" y="417" type="curve"/>
      <point x="-105" y="428"/>
      <point x="-47" y="438"/>
      <point x="0" y="438" type="curve"/>
      <point x="73" y="438"/>
      <point x="169" y="395"/>
      <point x="169" y="250" type="curve" smooth="yes"/>
      <point x="169" y="110"/>
      <point x="76" y="62"/>
      <point x="0" y="62" type="curve"/>
      <point x="-47" y="62"/>
      <point x="-105" y="72"/>
      <point x="-134" y="83" type="curve"/>
      <point x="-114" y="35"/>
      <point x="-58" y="0"/>
    </contour>
  </outline>
</glyph>
<glyph name="B" format="1">
  <advance width="167.0"/>
  <unicode hex="0042"/>
  <outline>
    <contour>
      <point x="0.0" y="751.0" type="line"/>
      <point x="77.0" y="751.0" type="line"/>
      <point x="77.0" y="0.0" type="line"/>
      <point x="0.0" y="0.0" type="line"/>
    </contour>
  </outline>
</glyph>
<glyph name="C" format="1">
  <advance width="455"/>
  <unicode hex="0043"/>
  <outline>
    <contour>
      <point x="134" y="500" type="curve"/>
      <point x="76" y="500"/>
      <point x="20" y="465"/>
      <point x="0" y="417" type="curve"/>
      <point x="29" y="428"/>
      <point x="87" y="438"/>
      <point x="134" y="438" type="curve"/>
      <point x="207" y="438"/>
      <point x="303" y="395"/>
      <point x="303" y="250" type="curve"/>
      <point x="303" y="0" type="line"/>
      <point x="385" y="0" type="line"/>
      <point x="385" y="250" type="line"/>
      <point x="385" y="388"/>
      <point x="272" y="500"/>
    </contour>
  </outline>
</glyph>
<glyph name="a" format="1">
  <advance width="663.0"/>
  <unicode hex="0061"/>
  <outline>
    <contour>
      <point x="516" y="99" type="curve"/>
      <point x="561" y="36" type="line"/>
      <point x="521" y="9"/>
      <point x="472" y="-5"/>
      <point x="414" y="-5" type="curve" smooth="yes"/>
      <point x="264" y="-5"/>
      <point x="165" y="90"/>
      <point x="165" y="239" type="curve" smooth="yes"/>
      <point x="165" y="388"/>
      <point x="264" y="482"/>
      <point x="414" y="482" type="curve" smooth="yes"/>
      <point x="464" y="482"/>
      <point x="508" y="471"/>
      <point x="545" y="451" type="curve"/>
      <point x="506" y="408" type="line"/>
      <point x="485" y="429"/>
      <point x="452" y="434"/>
      <point x="421" y="434" type="curve" smooth="yes"/>
      <point x="335" y="434"/>
      <point x="266" y="352"/>
      <point x="266" y="224" type="curve" smooth="yes"/>
      <point x="266" y="111"/>
      <point x="322" y="40"/>
      <point x="402" y="40" type="curve" smooth="yes"/>
      <point x="445" y="40"/>
      <point x="488" y="60"/>
    </contour>
    <contour>
      <point x="510.0" y="-1.0" type="line"/>
      <point x="510.0" y="466.0" type="line"/>
      <point x="613.0" y="477.0" type="line"/>
      <point x="613.0" y="-1.0" type="line"/>
    </contour>
  </outline>
</glyph>
<glyph name="b" format="1">
  <advance width="662.0"/>
  <unicode hex="0062"/>
  <outline>
    <contour>
      <point x="50.0" y="-1.0" type="line"/>
      <point x="50.0" y="779" type="line"/>
      <point x="153.0" y="790" type="line"/>
      <point x="153.0" y="-1.0" type="line"/>
    </contour>
    <contour>
      <point x="146.0" y="99" type="line"/>
      <point x="174.0" y="60"/>
      <point x="217.0" y="40"/>
      <point x="260.0" y="40" type="curve" smooth="yes"/>
      <point x="340.0" y="40"/>
      <point x="396.0" y="111"/>
      <point x="396.0" y="224" type="curve" smooth="yes"/>
      <point x="396.0" y="352"/>
      <point x="327.0" y="434"/>
      <point x="241.0" y="434" type="curve" smooth="yes"/>
      <point x="210.0" y="434"/>
      <point x="177.0" y="429"/>
      <point x="156.0" y="408" type="curve"/>
      <point x="117.0" y="451" type="line"/>
      <point x="154.0" y="471"/>
      <point x="198.0" y="482"/>
      <point x="248.0" y="482" type="curve" smooth="yes"/>
      <point x="398.0" y="482"/>
      <point x="497.0" y="388"/>
      <point x="497.0" y="239" type="curve" smooth="yes"/>
      <point x="497.0" y="90"/>
      <point x="398.0" y="-5"/>
      <point x="248.0" y="-5" type="curve" smooth="yes"/>
      <point x="190.0" y="-5"/>
      <point x="141.0" y="9"/>
      <point x="101.0" y="36" type="curve"/>
    </contour>
  </outline>
</glyph>
<glyph name="d" format="1">
  <advance width="663.0"/>
  <unicode hex="0064"/>
  <outline>
    <contour>
      <point x="516" y="378" type="line"/>
      <point x="488" y="417"/>
      <point x="445" y="437"/>
      <point x="402" y="437" type="curve" smooth="yes"/>
      <point x="322" y="437"/>
      <point x="266" y="366"/>
      <point x="266" y="253" type="curve" smooth="yes"/>
      <point x="266" y="125"/>
      <point x="335" y="43"/>
      <point x="421" y="43" type="curve" smooth="yes"/>
      <point x="452" y="43"/>
      <point x="485" y="48"/>
      <point x="506" y="69" type="curve"/>
      <point x="545" y="26" type="line"/>
      <point x="508" y="6"/>
      <point x="464" y="-5"/>
      <point x="414" y="-5" type="curve" smooth="yes"/>
      <point x="264" y="-5"/>
      <point x="165" y="89"/>
      <point x="165" y="238" type="curve" smooth="yes"/>
      <point x="165" y="387"/>
      <point x="264" y="482"/>
      <point x="414" y="482" type="curve" smooth="yes"/>
      <point x="472" y="482"/>
      <point x="521" y="468"/>
      <point x="561" y="441" type="curve"/>
    </contour>
    <contour>
      <point x="510.0" y="-1.0" type="line"/>
      <point x="510" y="779" type="line"/>
      <point x="613" y="790" type="line"/>
      <point x="613.0" y="-1.0" type="line"/>
    </contour>
    <contour>
      <point x="516" y="378" type="line"/>
      <point x="488" y="417"/>
      <point x="445" y="437"/>
      <point x="402" y="437" type="curve" smooth="yes"/>
      <point x="322" y="437"/>
      <point x="266" y="366"/>
      <point x="266" y="253" type="curve" smooth="yes"/>
      <point x="266" y="125"/>
      <point x="335" y="43"/>
      <point x="421" y="43" type="curve" smooth="yes"/>
      <point x="452" y="43"/>
      <point x="485" y="48"/>
      <point x="506" y="69" type="curve"/>
      <point x="545" y="26" type="line"/>
      <point x="508" y="6"/>
      <point x="464" y="-5"/>
      <point x="414" y="-5" type="curve" smooth="yes"/>
      <point x="264" y="-5"/>
      <point x="165" y="89"/>
      <point x="165" y="238" type="curve" smooth="yes"/>
      <point x="165" y="387"/>
      <point x="264" y="482"/>
      <point x="414" y="482" type="curve" smooth="yes"/>
      <point x="472" y="482"/>
      <point x="521" y="468"/>
      <point x="561" y="441" type="curve"/>
    </contour>
    <contour>
      <point x="510.0" y="-1.0" type="line"/>
      <point x="510" y="779" type="line"/>
      <point x="613" y="790" type="line"/>
      <point x="613.0" y="-1.0" type="line"/>
    </contour>
  </outline>
</glyph>
<glyph name="e" format="1">
  <advance width="795"/>
  <unicode hex="0065"/>
  <outline>
    <contour>
      <point x="514" y="318" type="curve"/>
      <point x="497" y="264" type="line"/>
      <point x="165" y="264" type="line"/>
      <point x="182" y="318" type="line"/>
      <point x="182" y="318"/>
      <point x="514" y="318"/>
    </contour>
    <contour>
      <point x="595" y="378" type="line"/>
      <point x="567" y="417"/>
      <point x="524" y="437"/>
      <point x="481" y="437" type="curve" smooth="yes"/>
      <point x="401" y="437"/>
      <point x="345" y="366"/>
      <point x="345" y="253" type="curve" smooth="yes"/>
      <point x="345" y="125"/>
      <point x="414" y="43"/>
      <point x="500" y="43" type="curve" smooth="yes"/>
      <point x="531" y="43"/>
      <point x="564" y="48"/>
      <point x="585" y="69" type="curve"/>
      <point x="624" y="26" type="line"/>
      <point x="587" y="6"/>
      <point x="543" y="-5"/>
      <point x="493" y="-5" type="curve" smooth="yes"/>
      <point x="343" y="-5"/>
      <point x="244" y="89"/>
      <point x="244" y="238" type="curve" smooth="yes"/>
      <point x="244" y="387"/>
      <point x="343" y="482"/>
      <point x="493" y="482" type="curve" smooth="yes"/>
      <point x="551" y="482"/>
      <point x="600" y="468"/>
      <point x="640" y="441" type="curve"/>
    </contour>
  </outline>
</glyph>
<glyph name="f" format="1">
  <advance width="740.75"/>
  <unicode hex="0066"/>
  <outline>
    <contour>
      <point x="562.75" y="658.0" type="curve"/>
      <point x="531.75" y="700.0"/>
      <point x="475.75" y="733.0"/>
      <point x="434.75" y="733.0" type="curve"/>
      <point x="355.75" y="733.0"/>
      <point x="329.75" y="668.0"/>
      <point x="329.75" y="594.0" type="curve"/>
      <point x="329.75" y="315.0" type="line"/>
      <point x="227.75" y="315.0" type="line"/>
      <point x="227.75" y="616.0" type="line"/>
      <point x="227.75" y="730.0"/>
      <point x="282.75" y="798.0"/>
      <point x="398.75" y="798.0" type="curve"/>
      <point x="478.75" y="798.0"/>
      <point x="552.75" y="737.0"/>
      <point x="585.75" y="686.0" type="curve"/>
      <point x="585.75" y="686.0"/>
      <point x="562.75" y="658.0"/>
    </contour>
    <contour>
      <point x="227.75" y="-1.0" type="line"/>
      <point x="227.75" y="466" type="line"/>
      <point x="330.75" y="477" type="line"/>
      <point x="330.75" y="-1.0" type="line"/>
    </contour>
    <contour>
      <point x="62.75" y="-1.0" type="line"/>
      <point x="62.75" y="466" type="line"/>
      <point x="165.75" y="477" type="line"/>
      <point x="165.75" y="-1.0" type="line"/>
    </contour>
    <contour>
      <point x="311.75" y="0.0" type="curve"/>
      <point x="299.0" y="-54.0" type="line"/>
      <point x="50.0" y="-54.0" type="line"/>
      <point x="62.75" y="0.0" type="line"/>
      <point x="62.75" y="0.0"/>
      <point x="311.75" y="0.0"/>
    </contour>
    <contour>
      <point x="311.75" y="477.0" type="curve"/>
      <point x="299.0" y="423.0" type="line"/>
      <point x="50.0" y="423.0" type="line"/>
      <point x="62.75" y="477.0" type="line"/>
      <point x="62.75" y="477.0"/>
      <point x="311.75" y="477.0"/>
    </contour>
    <contour>
      <point x="397.75" y="658.0" type="curve"/>
      <point x="366.75" y="700.0"/>
      <point x="310.75" y="733.0"/>
      <point x="269.75" y="733.0" type="curve"/>
      <point x="190.75" y="733.0"/>
      <point x="164.75" y="668.0"/>
      <point x="164.75" y="594.0" type="curve"/>
      <point x="164.75" y="315.0" type="line"/>
      <point x="62.75" y="315.0" type="line"/>
      <point x="62.75" y="616.0" type="line"/>
      <point x="62.75" y="730.0"/>
      <point x="117.75" y="798.0"/>
      <point x="233.75" y="798.0" type="curve"/>
      <point x="313.75" y="798.0"/>
      <point x="387.75" y="737.0"/>
      <point x="420.75" y="686.0" type="curve"/>
      <point x="420.75" y="686.0"/>
      <point x="397.75" y="658.0"/>
    </contour>
  </outline>
</glyph>
<glyph name="h" format="1">
  <advance width="1000"/>
  <unicode hex="0068"/>
  <outline>
    <contour>
      <point x="397" y="-1" type="line"/>
      <point x="397" y="314" type="line"/>
      <point x="397" y="779" type="line"/>
      <point x="500" y="790" type="line"/>
      <point x="500" y="-1" type="line"/>
    </contour>
    <contour>
      <point x="492" y="342" type="curve"/>
      <point x="492" y="342"/>
      <point x="469" y="370"/>
      <point x="469" y="370" type="curve"/>
      <point x="502" y="421"/>
      <point x="576" y="482"/>
      <point x="656" y="482" type="curve"/>
      <point x="772" y="481"/>
      <point x="827" y="414"/>
      <point x="827" y="300" type="curve"/>
      <point x="827" y="-1" type="line"/>
      <point x="725" y="-1" type="line"/>
      <point x="725" y="278" type="line"/>
      <point x="725" y="352"/>
      <point x="699" y="417"/>
      <point x="620" y="417" type="curve"/>
      <point x="579" y="417"/>
      <point x="523" y="384"/>
    </contour>
  </outline>
</glyph>
<glyph name="i" format="1">
  <advance width="203.0"/>
  <unicode hex="0069"/>
  <outline>
    <contour>
      <point x="50.0" y="-1.0" type="line"/>
      <point x="50.0" y="466" type="line"/>
      <point x="153.0" y="477" type="line"/>
      <point x="153.0" y="-1.0" type="line"/>
    </contour>
  </outline>
</glyph>
<glyph name="l" format="1">
  <advance width="203.0"/>
  <unicode hex="006C"/>
  <outline>
    <contour>
      <point x="50.0" y="-1.0" type="line"/>
      <point x="50.0" y="779" type="line"/>
      <point x="153.0" y="790" type="line"/>
      <point x="153.0" y="-1.0" type="line"/>
    </contour>
  </outline>
</glyph>
<glyph name="m" format="1">
  <advance width="1327"/>
  <unicode hex="006D"/>
  <outline>
    <contour>
      <point x="397" y="-51" type="line"/>
      <point x="397" y="264" type="line"/>
      <point x="397" y="729" type="line"/>
      <point x="500" y="740" type="line"/>
      <point x="500" y="-51" type="line"/>
    </contour>
    <contour>
      <point x="492" y="342" type="curve"/>
      <point x="492" y="342"/>
      <point x="469" y="370"/>
      <point x="469" y="370" type="curve"/>
      <point x="502" y="421"/>
      <point x="576" y="482"/>
      <point x="656" y="482" type="curve"/>
      <point x="772" y="481"/>
      <point x="827" y="414"/>
      <point x="827" y="300" type="curve"/>
      <point x="827" y="-1" type="line"/>
      <point x="725" y="-1" type="line"/>
      <point x="725" y="278" type="line"/>
      <point x="725" y="352"/>
      <point x="699" y="417"/>
      <point x="620" y="417" type="curve"/>
      <point x="579" y="417"/>
      <point x="523" y="384"/>
    </contour>
    <contour>
      <point x="819" y="342" type="curve"/>
      <point x="819" y="342"/>
      <point x="796" y="370"/>
      <point x="796" y="370" type="curve"/>
      <point x="829" y="421"/>
      <point x="903" y="482"/>
      <point x="983" y="482" type="curve"/>
      <point x="1099" y="481"/>
      <point x="1154" y="414"/>
      <point x="1154" y="300" type="curve"/>
      <point x="1154" y="-1" type="line"/>
      <point x="1052" y="-1" type="line"/>
      <point x="1052" y="278" type="line"/>
      <point x="1052" y="352"/>
      <point x="1026" y="417"/>
      <point x="947" y="417" type="curve"/>
      <point x="906" y="417"/>
      <point x="850" y="384"/>
    </contour>
  </outline>
</glyph>
<glyph name="n" format="1">
  <advance width="1000.0"/>
  <unicode hex="006E"/>
  <outline>
    <contour>
      <point x="397.0" y="-0.666" type="line"/>
      <point x="397.0" y="209.124" type="line"/>
      <point x="397.0" y="518.814" type="line"/>
      <point x="500.0" y="526.14" type="line"/>
      <point x="500.0" y="-0.666" type="line"/>
    </contour>
    <contour>
      <point x="492.0" y="342" type="curve"/>
      <point x="492.0" y="342"/>
      <point x="469.0" y="370"/>
      <point x="469.0" y="370" type="curve"/>
      <point x="502.0" y="421"/>
      <point x="576.0" y="482"/>
      <point x="656.0" y="482" type="curve"/>
      <point x="772.0" y="481"/>
      <point x="827.0" y="414"/>
      <point x="827.0" y="300" type="curve"/>
      <point x="827.0" y="-1" type="line"/>
      <point x="725.0" y="-1" type="line"/>
      <point x="725.0" y="278" type="line"/>
      <point x="725.0" y="352"/>
      <point x="699.0" y="417"/>
      <point x="620.0" y="417" type="curve"/>
      <point x="579.0" y="417"/>
      <point x="523.0" y="384"/>
    </contour>
  </outline>
</glyph>
<glyph name="o" format="1">
  <advance width="1000.0"/>
  <unicode hex="006F"/>
  <outline>
    <contour>
      <point x="601.0" y="393.0" type="line"/>
      <point x="573.0" y="432.0"/>
      <point x="530.0" y="452.0"/>
      <point x="487.0" y="452.0" type="curve" smooth="yes"/>
      <point x="407.0" y="452.0"/>
      <point x="351.0" y="378.0"/>
      <point x="351.0" y="265.0" type="curve" smooth="yes"/>
      <point x="351.0" y="137.0"/>
      <point x="420.0" y="51.0"/>
      <point x="506.0" y="51.0" type="curve" smooth="yes"/>
      <point x="537.0" y="51.0"/>
      <point x="570.0" y="56.0"/>
      <point x="591.0" y="77.0" type="curve"/>
      <point x="630.0" y="34.0" type="line"/>
      <point x="593.0" y="14.0"/>
      <point x="549.0" y="3.0"/>
      <point x="499.0" y="3.0" type="curve" smooth="yes"/>
      <point x="349.0" y="3.0"/>
      <point x="250.0" y="101.0"/>
      <point x="250.0" y="250.0" type="curve" smooth="yes"/>
      <point x="250.0" y="399.0"/>
      <point x="349.0" y="497.0"/>
      <point x="499.0" y="497.0" type="curve" smooth="yes"/>
      <point x="557.0" y="497.0"/>
      <point x="606.0" y="483.0"/>
      <point x="646.0" y="456.0" type="curve"/>
    </contour>
    <contour>
      <point x="399.0" y="107.0" type="line"/>
      <point x="427.0" y="68.0"/>
      <point x="470.0" y="48.0"/>
      <point x="513.0" y="48.0" type="curve" smooth="yes"/>
      <point x="593.0" y="48.0"/>
      <point x="649.0" y="122.0"/>
      <point x="649.0" y="235.0" type="curve" smooth="yes"/>
      <point x="649.0" y="363.0"/>
      <point x="580.0" y="449.0"/>
      <point x="494.0" y="449.0" type="curve" smooth="yes"/>
      <point x="463.0" y="449.0"/>
      <point x="430.0" y="444.0"/>
      <point x="409.0" y="423.0" type="curve"/>
      <point x="370.0" y="466.0" type="line"/>
      <point x="407.0" y="486.0"/>
      <point x="451.0" y="497.0"/>
      <point x="501.0" y="497.0" type="curve" smooth="yes"/>
      <point x="651.0" y="497.0"/>
      <point x="750.0" y="399.0"/>
      <point x="750.0" y="250.0" type="curve" smooth="yes"/>
      <point x="750.0" y="101.0"/>
      <point x="651.0" y="3.0"/>
      <point x="501.0" y="3.0" type="curve" smooth="yes"/>
      <point x="443.0" y="3.0"/>
      <point x="394.0" y="17.0"/>
      <point x="354.0" y="44.0" type="curve"/>
    </contour>
  </outline>
</glyph>
<glyph name="q" format="1">
  <advance width="381.0"/>
  <unicode hex="0071"/>
  <outline>
    <contour>
      <point x="234.0" y="99" type="curve"/>
      <point x="279.0" y="36" type="line"/>
      <point x="239.0" y="9"/>
      <point x="190.0" y="-5"/>
      <point x="132.0" y="-5" type="curve" smooth="yes"/>
      <point x="-18.0" y="-5"/>
      <point x="-117.0" y="90"/>
      <point x="-117.0" y="239" type="curve" smooth="yes"/>
      <point x="-117.0" y="388"/>
      <point x="-18.0" y="482"/>
      <point x="132.0" y="482" type="curve" smooth="yes"/>
      <point x="182.0" y="482"/>
      <point x="226.0" y="471"/>
      <point x="263.0" y="451" type="curve"/>
      <point x="224.0" y="408" type="line"/>
      <point x="203.0" y="429"/>
      <point x="170.0" y="434"/>
      <point x="139.0" y="434" type="curve" smooth="yes"/>
      <point x="53.0" y="434"/>
      <point x="-16.0" y="352"/>
      <point x="-16.0" y="224" type="curve" smooth="yes"/>
      <point x="-16.0" y="111"/>
      <point x="40.0" y="40"/>
      <point x="120.0" y="40" type="curve" smooth="yes"/>
      <point x="163.0" y="40"/>
      <point x="206.0" y="60"/>
    </contour>
    <contour>
      <point x="228.0" y="-250.0" type="line"/>
      <point x="228.0" y="466.0" type="line"/>
      <point x="331.0" y="477.0" type="line"/>
      <point x="331.0" y="-250.0" type="line"/>
    </contour>
  </outline>
</glyph>
<glyph name="t" format="1">
  <advance width="527.0"/>
  <unicode hex="0074"/>
  <outline>
    <contour>
      <point x="454.0" y="132.0" type="curve"/>
      <point x="454.0" y="132.0"/>
      <point x="477.0" y="104.0"/>
      <point x="477.0" y="104.0" type="curve"/>
      <point x="444.0" y="53.0"/>
      <point x="370.0" y="-8.0"/>
      <point x="290.0" y="-8.0" type="curve"/>
      <point x="174.0" y="-8.0"/>
      <point x="119.0" y="60.0"/>
      <point x="119.0" y="174.0" type="curve"/>
      <point x="119.0" y="475.0" type="line"/>
      <point x="221.0" y="475.0" type="line"/>
      <point x="221.0" y="196.0" type="line"/>
      <point x="221.0" y="122.0"/>
      <point x="247.0" y="57.0"/>
      <point x="326.0" y="57.0" type="curve"/>
      <point x="367.0" y="57.0"/>
      <point x="423.0" y="90.0"/>
    </contour>
    <contour>
      <point x="119.0" y="158.0" type="line"/>
      <point x="119.0" y="625.0" type="line"/>
      <point x="222.0" y="636.0" type="line"/>
      <point x="222.0" y="158.0" type="line"/>
    </contour>
    <contour>
      <point x="399.0" y="477" type="curve"/>
      <point x="382.0" y="423" type="line"/>
      <point x="50.0" y="423" type="line"/>
      <point x="67.0" y="477" type="line"/>
      <point x="67.0" y="477"/>
      <point x="399.0" y="477"/>
    </contour>
  </outline>
</glyph>
<glyph name="u" format="1">
  <advance width="1000.0"/>
  <unicode hex="0075"/>
  <outline>
    <contour>
      <point x="603.0" y="500.666" type="line"/>
      <point x="603.0" y="290.876" type="line"/>
      <point x="603.0" y="-18.814" type="line"/>
      <point x="500.0" y="-26.14" type="line"/>
      <point x="500.0" y="500.666" type="line"/>
    </contour>
    <contour>
      <point x="508.0" y="158.0" type="curve"/>
      <point x="508.0" y="158.0"/>
      <point x="531.0" y="130.0"/>
      <point x="531.0" y="130.0" type="curve"/>
      <point x="498.0" y="79.0"/>
      <point x="424.0" y="18.0"/>
      <point x="344.0" y="18.0" type="curve"/>
      <point x="228.0" y="19.0"/>
      <point x="173.0" y="86.0"/>
      <point x="173.0" y="200.0" type="curve"/>
      <point x="173.0" y="501.0" type="line"/>
      <point x="275.0" y="501.0" type="line"/>
      <point x="275.0" y="222.0" type="line"/>
      <point x="275.0" y="148.0"/>
      <point x="301.0" y="83.0"/>
      <point x="380.0" y="83.0" type="curve"/>
      <point x="421.0" y="83.0"/>
      <point x="477.0" y="116.0"/>
    </contour>
  </outline>
</glyph>
<glyph name="v" format="1">
  <advance width="500"/>
  <unicode hex="0076"/>
  <outline>
    <contour>
      <point x="250" y="-5" type="line"/>
      <point x="0" y="477" type="line"/>
      <point x="102" y="477" type="line"/>
      <point x="251" y="181" type="line"/>
      <point x="401" y="477" type="line"/>
      <point x="500" y="477" type="line"/>
    </contour>
  </outline>
</glyph>
<glyph name="crossbar" format="1">
  <advance width="500"/>
  <outline>
    <contour>
      <point x="332" y="0" type="curve"/>
      <point x="315" y="-54" type="line"/>
      <point x="-17" y="-54" type="line"/>
      <point x="0" y="0" type="line"/>
      <point x="0" y="0"/>
      <point x="332" y="0"/>
    </contour>
  </outline>
</glyph>
<glyph name="round" format="1">
  <advance width="279.0"/>
  <outline>
    <contour>
      <point x="-102.0" y="99.0" type="line"/>
      <point x="-74.0" y="60.0"/>
      <point x="-31.0" y="40.0"/>
      <point x="12.0" y="40.0" type="curve" smooth="yes"/>
      <point x="92.0" y="40.0"/>
      <point x="148.0" y="111.0"/>
      <point x="148.0" y="224.0" type="curve" smooth="yes"/>
      <point x="148.0" y="352.0"/>
      <point x="79.0" y="434.0"/>
      <point x="-7.0" y="434.0" type="curve" smooth="yes"/>
      <point x="-38.0" y="434.0"/>
      <point x="-71.0" y="429.0"/>
      <point x="-92.0" y="408.0" type="curve"/>
      <point x="-131.0" y="451.0" type="line"/>
      <point x="-94.0" y="471.0"/>
      <point x="-50.0" y="482.0"/>
      <point x="0.0" y="482.0" type="curve" smooth="yes"/>
      <point x="150.0" y="482.0"/>
      <point x="249.0" y="388.0"/>
      <point x="249.0" y="239.0" type="curve" smooth="yes"/>
      <point x="249.0" y="90.0"/>
      <point x="150.0" y="-5.0"/>
      <point x="0.0" y="-5.0" type="curve" smooth="yes"/>
      <point x="-58.0" y="-5.0"/>
      <point x="-107.0" y="9.0"/>
      <point x="-147.0" y="36.0" type="curve"/>
    </contour>
  </outline>
</glyph>
<glyph name="roundleg" format="1">
  <advance width="374"/>
  <outline>
    <contour>
      <point x="-8" y="343" type="curve"/>
      <point x="23" y="385"/>
      <point x="79" y="418"/>
      <point x="120" y="418" type="curve"/>
      <point x="199" y="418"/>
      <point x="225" y="353"/>
      <point x="225" y="279" type="curve"/>
      <point x="225" y="0" type="line"/>
      <point x="327" y="0" type="line"/>
      <point x="327" y="301" type="line"/>
      <point x="327" y="415"/>
      <point x="272" y="483"/>
      <point x="156" y="483" type="curve"/>
      <point x="76" y="483"/>
      <point x="2" y="422"/>
      <point x="-31" y="371" type="curve"/>
      <point x="-31" y="371"/>
      <point x="-8" y="343"/>
    </contour>
  </outline>
</glyph>
<glyph name="shortcrossbar" format="1">
  <advance width="500"/>
  <outline>
    <contour>
      <point x="249.0" y="0.0" type="curve"/>
      <point x="236.25" y="-54.0" type="line"/>
      <point x="-12.75" y="-54.0" type="line"/>
      <point x="0.0" y="0.0" type="line"/>
      <point x="0.0" y="0.0"/>
      <point x="249.0" y="0.0"/>
    </contour>
  </outline>
</glyph>
<glyph name="straight" format="1">
  <advance width="500"/>
  <outline>
    <contour>
      <point x="0" y="-1" type="line"/>
      <point x="103" y="-1" type="line"/>
      <point x="103" y="790" type="line"/>
      <point x="0" y="779" type="line"/>
      <point x="0" y="314" type="line"/>
    </contour>
  </outline>
</glyph>
<glyph name="straightD" format="1">
  <advance width="153.0"/>
  <outline>
    <contour>
      <point x="0.0" y="-250.0" type="line"/>
      <point x="0.0" y="466" type="line"/>
      <point x="103.0" y="477" type="line"/>
      <point x="103.0" y="-250.0" type="line"/>
    </contour>
  </outline>
</glyph>
<glyph name="ucCrossbar" format="1">
  <advance width="546"/>
  <outline>
    <contour>
      <point x="565" y="0" type="curve"/>
      <point x="547" y="-59" type="line"/>
      <point x="-18.7" y="-59.4" type="line"/>
      <point x="0.0" y="0.0" type="line"/>
      <point x="0.0" y="0.0"/>
      <point x="565" y="0"/>
    </contour>
  </outline>
</glyph>
<glyph name="ucRound" format="1">
  <advance width="500"/>
  <outline>
    <contour>
      <point x="-239" y="54" type="curve"/>
      <point x="-181" y="132" type="line"/>
      <point x="-128" y="78"/>
      <point x="-57" y="47"/>
      <point x="23" y="47" type="curve" smooth="yes"/>
      <point x="183" y="47"/>
      <point x="286" y="164"/>
      <point x="286" y="350" type="curve" smooth="yes"/>
      <point x="286" y="552"/>
      <point x="156" y="706"/>
      <point x="-14" y="706" type="curve" smooth="yes"/>
      <point x="-70" y="706"/>
      <point x="-119" y="691"/>
      <point x="-160" y="663" type="curve"/>
      <point x="-209" y="716" type="line"/>
      <point x="-149" y="748"/>
      <point x="-78" y="766"/>
      <point x="3" y="766" type="curve" smooth="yes"/>
      <point x="243" y="766"/>
      <point x="401" y="611"/>
      <point x="401" y="376" type="curve" smooth="yes"/>
      <point x="401" y="140"/>
      <point x="243" y="-15"/>
      <point x="3" y="-15" type="curve" smooth="yes"/>
      <point x="-92" y="-15"/>
      <point x="-175" y="10"/>
    </contour>
  </outline>
</glyph>
